<svg height="512pt" viewBox="0 -27 512.00128 512" width="512pt" xmlns="http://www.w3.org/2000/svg"><path d="m10 415h263v33h-263zm0 0" fill="#edf2fa"/><path d="m290.328125 394h-26l80.671875-192v-61.035156h5.574219v-44.441406c-7.234375-13.460938-13.898438-25.863282-20.496094-38.140626v143.617188l-107.246094 246h279.167969v-54zm0 0" fill="#d8d8e4"/><path d="m502 438h-289.898438l101.140626-232.003906c.550781-1.261719.835937-2.621094.835937-3.996094v-152.265625l26.496094 49.308594v32.949219c-3.300781 1.632812-5.574219 5.035156-5.574219 8.972656v59.019531l-79.890625 190.140625c-1.296875 3.089844-.960937 6.621094.890625 9.410156 1.855469 2.789063 4.980469 4.464844 8.328125 4.464844h237.671875c5.523438 0 10-4.476562 10-10 0-1.828125-.496094-3.535156-1.351562-5.007812-.023438-.042969-.039063-.082032-.066407-.125l-150.007812-250.667969v-41.675781c0-1.652344-.410157-3.277344-1.191407-4.730469l-46.5-86.523438c-2.167968-4.039062-6.804687-6.085937-11.25-4.964843-2.695312.679687-4.898437 2.421874-6.21875 4.710937l-291.355468 215.207031c-4.441406 3.28125-5.382813 9.542969-2.101563 13.984375 1.960938 2.65625 4.984375 4.0625 8.050781 4.0625 2.0625 0 4.144532-.636719 5.933594-1.957031l278.136719-205.441406v15.132812l-290.648437 253.5c-4.164063 3.628906-4.59375 9.945313-.964844 14.105469 1.976562 2.269531 4.75 3.429687 7.542968 3.429687 2.332032 0 4.671876-.8125 6.566407-2.464843l277.503906-242.03125v23.242187l-291.148437 291.144532c-.136719.136718-.25.261718-.351563.386718-1.597656 1.769532-2.578125 4.109375-2.578125 6.683594 0 5.523438 4.476562 10 10 10h195.105469l-14.824219 34h-139.945312c-5.523438 0-10 4.480469-10 10 0 5.523438 4.476562 10 10 10h451.664062c5.523438 0 10-4.476562 10-10 0-5.519531-4.476562-10-10-10zm-147.78125-232.125c.515625-1.226562.78125-2.542969.78125-3.875v-16.195312l43.847656 131.363281c1.398438 4.1875 5.300782 6.835937 9.484375 6.835937 1.050781 0 2.117188-.167968 3.167969-.519531 5.238281-1.746094 8.066406-7.410156 6.320312-12.648437l-28.707031-86 95.25 159.164062h-204.988281zm-259.917969 178.125 199.777344-199.777344v14.046875l-161.058594 185.730469zm199.777344-228.0625-228.0625 228.0625h-31.871094l259.933594-259.933594zm-134.585937 228.0625 109.261718-126-54.929687 126zm0 0"/><path d="m428.378906 347.160156c-1.859375-1.859375-4.4375-2.929687-7.070312-2.929687-2.628906 0-5.207032 1.070312-7.066406 2.929687-1.863282 1.859375-2.933594 4.441406-2.933594 7.070313 0 2.628906 1.070312 5.210937 2.933594 7.070312 1.859374 1.859375 4.4375 2.929688 7.066406 2.929688 2.632812 0 5.210937-1.070313 7.070312-2.929688 1.863282-1.863281 2.929688-4.441406 2.929688-7.070312 0-2.628907-1.070313-5.210938-2.929688-7.070313zm0 0"/><path d="m10 438c-2.628906 0-5.207031 1.070312-7.070312 2.929688-1.859376 1.859374-2.929688 4.441406-2.929688 7.070312s1.070312 5.210938 2.929688 7.070312c1.863281 1.859376 4.441406 2.929688 7.070312 2.929688 2.632812 0 5.210938-1.070312 7.070312-2.929688 1.859376-1.859374 2.929688-4.441406 2.929688-7.070312s-1.070312-5.210938-2.929688-7.070312c-1.859374-1.859376-4.4375-2.929688-7.070312-2.929688zm0 0"/></svg>